<?xml version="1.0" encoding="utf-8" standalone="no"?>
<!DOCTYPE svg PUBLIC "-//W3C//DTD SVG 1.1//EN"
  "http://www.w3.org/Graphics/SVG/1.1/DTD/svg11.dtd">
<svg xmlns:xlink="http://www.w3.org/1999/xlink" width="684pt" height="236.16pt" viewBox="0 0 684 236.16" xmlns="http://www.w3.org/2000/svg" version="1.1">
 <metadata>
  <rdf:RDF xmlns:dc="http://purl.org/dc/elements/1.1/" xmlns:cc="http://creativecommons.org/ns#" xmlns:rdf="http://www.w3.org/1999/02/22-rdf-syntax-ns#">
   <cc:Work>
    <dc:type rdf:resource="http://purl.org/dc/dcmitype/StillImage"/>
    <dc:date>2025-03-23T20:33:02.556563</dc:date>
    <dc:format>image/svg+xml</dc:format>
    <dc:creator>
     <cc:Agent>
      <dc:title>Matplotlib v3.6.3, https://matplotlib.org/</dc:title>
     </cc:Agent>
    </dc:creator>
   </cc:Work>
  </rdf:RDF>
 </metadata>
 <defs>
  <style type="text/css">*{stroke-linejoin: round; stroke-linecap: butt}</style>
 </defs>
 <g id="figure_1">
  <g id="patch_1">
   <path d="M 0 236.16 
L 684 236.16 
L 684 0 
L 0 0 
L 0 236.16 
z
" style="fill: none"/>
  </g>
  <g id="axes_1">
   <g id="patch_2">
    <path d="M 38.285039 63.97452 
L 128.262539 63.97452 
L 128.262539 83.79432 
L 95.891564 83.79432 
L 95.891564 165.6 
L 70.718789 165.6 
L 70.718789 83.79432 
L 38.285039 83.79432 
L 38.285039 63.97452 
z
M 185.882142 81.13716 
Q 174.373392 81.13716 168.033117 89.97984 
Q 161.692842 98.82252 161.692842 114.89616 
Q 161.692842 130.88268 168.033117 139.74714 
Q 174.373392 148.58982 185.882142 148.58982 
Q 197.453667 148.58982 203.793942 139.74714 
Q 210.134217 130.88268 210.134217 114.89616 
Q 210.134217 98.82252 203.793942 89.97984 
Q 197.453667 81.13716 185.882142 81.13716 
z
M 185.882142 62.145 
Q 209.422767 62.145 222.751992 76.17132 
Q 236.102142 90.17586 236.102142 114.89616 
Q 236.102142 139.52934 222.751992 153.55566 
Q 209.422767 167.58198 185.882142 167.58198 
Q 162.404292 167.58198 149.033217 153.55566 
Q 135.662142 139.52934 135.662142 114.89616 
Q 135.662142 90.17586 149.033217 76.17132 
Q 162.404292 62.145 185.882142 62.145 
z
M 236.65927 63.97452 
L 264.19657 63.97452 
L 286.439845 100.19466 
L 308.662195 63.97452 
L 336.26227 63.97452 
L 299.05762 122.78052 
L 299.05762 165.6 
L 273.884845 165.6 
L 273.884845 122.78052 
L 236.65927 63.97452 
z
M 347.255742 63.97452 
L 372.428517 63.97452 
L 372.428517 145.80198 
L 416.622117 145.80198 
L 416.622117 165.6 
L 347.255742 165.6 
L 347.255742 63.97452 
z
M 432.590507 63.97452 
L 457.763282 63.97452 
L 457.763282 165.6 
L 432.590507 165.6 
L 432.590507 63.97452 
z
M 521.506064 103.33098 
Q 527.469689 103.33098 530.524739 100.60848 
Q 533.600714 97.88598 533.600714 92.57166 
Q 533.600714 87.32268 530.524739 84.5784 
Q 527.469689 81.81234 521.506064 81.81234 
L 507.590939 81.81234 
L 507.590939 103.33098 
L 521.506064 103.33098 
z
M 522.363989 147.76218 
Q 529.938839 147.76218 533.768114 144.42984 
Q 537.597389 141.0975 537.597389 134.36748 
Q 537.597389 127.74636 533.809964 124.45758 
Q 530.022539 121.14702 522.363989 121.14702 
L 507.590939 121.14702 
L 507.590939 147.76218 
L 522.363989 147.76218 
z
M 545.779064 111.21534 
Q 553.877039 113.67648 558.313139 120.27582 
Q 562.770164 126.87516 562.770164 136.45836 
Q 562.770164 151.15986 553.228364 158.39082 
Q 543.686564 165.6 524.184464 165.6 
L 482.418164 165.6 
L 482.418164 63.97452 
L 520.208714 63.97452 
Q 540.547814 63.97452 549.671114 70.37784 
Q 558.794414 76.78116 558.794414 90.87282 
Q 558.794414 98.27802 555.446414 103.48344 
Q 552.119339 108.68886 545.779064 111.21534 
z
" clip-path="url(#p6f3a735cc0)" style="fill: #4a90e2"/>
   </g>
   <g id="patch_3">
    <path d="M 38.285039 63.97452 
L 128.262539 63.97452 
L 128.262539 83.79432 
L 95.891564 83.79432 
L 95.891564 165.6 
L 70.718789 165.6 
L 70.718789 83.79432 
L 38.285039 83.79432 
L 38.285039 63.97452 
L 38.285039 63.97452 
z
M 185.882142 81.13716 
Q 174.373392 81.13716 168.033117 89.97984 
Q 161.692842 98.82252 161.692842 114.89616 
Q 161.692842 130.88268 168.033117 139.74714 
Q 174.373392 148.58982 185.882142 148.58982 
Q 197.453667 148.58982 203.793942 139.74714 
Q 210.134217 130.88268 210.134217 114.89616 
Q 210.134217 98.82252 203.793942 89.97984 
Q 197.453667 81.13716 185.882142 81.13716 
L 185.882142 81.13716 
z
M 185.882142 62.145 
Q 209.422767 62.145 222.751992 76.17132 
Q 236.102142 90.17586 236.102142 114.89616 
Q 236.102142 139.52934 222.751992 153.55566 
Q 209.422767 167.58198 185.882142 167.58198 
Q 162.404292 167.58198 149.033217 153.55566 
Q 135.662142 139.52934 135.662142 114.89616 
Q 135.662142 90.17586 149.033217 76.17132 
Q 162.404292 62.145 185.882142 62.145 
L 185.882142 62.145 
z
M 236.65927 63.97452 
L 264.19657 63.97452 
L 286.439845 100.19466 
L 308.662195 63.97452 
L 336.26227 63.97452 
L 299.05762 122.78052 
L 299.05762 165.6 
L 273.884845 165.6 
L 273.884845 122.78052 
L 236.65927 63.97452 
L 236.65927 63.97452 
z
M 347.255742 63.97452 
L 372.428517 63.97452 
L 372.428517 145.80198 
L 416.622117 145.80198 
L 416.622117 165.6 
L 347.255742 165.6 
L 347.255742 63.97452 
L 347.255742 63.97452 
z
M 432.590507 63.97452 
L 457.763282 63.97452 
L 457.763282 165.6 
L 432.590507 165.6 
L 432.590507 63.97452 
L 432.590507 63.97452 
z
M 521.506064 103.33098 
Q 527.469689 103.33098 530.524739 100.60848 
Q 533.600714 97.88598 533.600714 92.57166 
Q 533.600714 87.32268 530.524739 84.5784 
Q 527.469689 81.81234 521.506064 81.81234 
L 507.590939 81.81234 
L 507.590939 103.33098 
L 521.506064 103.33098 
L 521.506064 103.33098 
z
M 522.363989 147.76218 
Q 529.938839 147.76218 533.768114 144.42984 
Q 537.597389 141.0975 537.597389 134.36748 
Q 537.597389 127.74636 533.809964 124.45758 
Q 530.022539 121.14702 522.363989 121.14702 
L 507.590939 121.14702 
L 507.590939 147.76218 
L 522.363989 147.76218 
L 522.363989 147.76218 
z
M 545.779064 111.21534 
Q 553.877039 113.67648 558.313139 120.27582 
Q 562.770164 126.87516 562.770164 136.45836 
Q 562.770164 151.15986 553.228364 158.39082 
Q 543.686564 165.6 524.184464 165.6 
L 482.418164 165.6 
L 482.418164 63.97452 
L 520.208714 63.97452 
Q 540.547814 63.97452 549.671114 70.37784 
Q 558.794414 76.78116 558.794414 90.87282 
Q 558.794414 98.27802 555.446414 103.48344 
Q 552.119339 108.68886 545.779064 111.21534 
L 545.779064 111.21534 
z
" clip-path="url(#p6f3a735cc0)" style="fill: none; stroke: #2a5d9f; stroke-width: 3; stroke-linejoin: miter"/>
   </g>
   <g id="patch_4">
    <path d="M 439.396364 140.256 
L 451.570909 140.256 
L 451.570909 127.584 
L 439.396364 127.584 
z
" clip-path="url(#p6f3a735cc0)" style="fill: #f4a261"/>
   </g>
   <g id="patch_5">
    <path d="M 457.658182 140.256 
L 469.832727 140.256 
L 469.832727 127.584 
L 457.658182 127.584 
z
" clip-path="url(#p6f3a735cc0)" style="fill: #e76f51"/>
   </g>
   <g id="patch_6">
    <path d="M 500.269091 140.256 
L 512.443636 140.256 
L 512.443636 127.584 
L 500.269091 127.584 
z
" clip-path="url(#p6f3a735cc0)" style="fill: #2a9d8f"/>
   </g>
   <g id="patch_7">
    <path d="M 548.967273 102.24 
L 561.141818 102.24 
L 561.141818 89.568 
L 548.967273 89.568 
z
" clip-path="url(#p6f3a735cc0)" style="fill: #e9c46a"/>
   </g>
  </g>
 </g>
 <defs>
  <clipPath id="p6f3a735cc0">
   <rect x="7.2" y="7.2" width="669.6" height="221.76"/>
  </clipPath>
 </defs>
</svg>
